<svg xmlns="http://www.w3.org/2000/svg" viewBox="0 0 23.03 28.35"><defs><style>.cls-1{fill:#fff;}</style></defs><g id="Layer_2" data-name="Layer 2"><g id="Layer_1-2" data-name="Layer 1"><path class="cls-1" d="M19.22,18.55l-.23.59a1.25,1.25,0,0,1-.29-.62c-.33-1.78-.58-3.57-1-5.32A83.71,83.71,0,0,1,15.28.87a.94.94,0,0,0-.9-.84A1.29,1.29,0,0,0,12.9.82a6.26,6.26,0,0,0-.56,2.23c0,1.44.16,2.89.22,4.34,0,.84,0,1.68,0,2.57l.74-.15c0-1.22,0-2.38,0-3.55s-.14-2.36-.14-3.55a3.75,3.75,0,0,1,.38-1.41c.11-.22.46-.31.7-.47a3,3,0,0,1,.3.66c.39,2.3.66,4.63,1.17,6.91.76,3.43,1.76,6.81,2.2,10.32a1.64,1.64,0,0,0,.64,1.17.64.64,0,0,1,.26.73c-.3,1.71-.58,3.42-.87,5.13,0,.15-.08.29-.12.43l-.27,0a6.32,6.32,0,0,1-5.17-6.84c.08-1.28.06-2.58,0-3.87,0-1.09-.11-2.19-.09-3.29a1.15,1.15,0,0,1,.43-.88,1,1,0,0,1,1,.13,2.28,2.28,0,0,1,.7,1.12c.37,1.56.66,3.15,1,4.73,0,.11.08.23.12.34a17.69,17.69,0,0,0-.35-5.34,2.39,2.39,0,0,0-1.72-1.79,1.35,1.35,0,0,0-1.78.88,2.5,2.5,0,0,0-.12,1,36.52,36.52,0,0,1,.08,6.36,7.08,7.08,0,0,0,5.45,8.17c.47.13.76.27.5.9l4.18.58c.43-3.08.85-6.07,1.27-9.12Zm1.9,8.94-2.66-.37,1.32-7.71,2.4.42C21.83,22.39,21.48,24.9,21.12,27.49Z"/><path class="cls-1" d="M10.76,10.62a1.52,1.52,0,0,0-1.71,0,2.14,2.14,0,0,0-1.19,1.48c-.19,1-.33,2.1-.43,3.15-.06.71,0,1.44,0,2.15a.82.82,0,0,0,.2-.42c.23-1.08.44-2.15.66-3.23.11-.53.2-1.08.35-1.6a1.44,1.44,0,0,1,1.39-1c.45.07.66.49.63,1.28,0,.2,0,.39,0,.59,0,2.17,0,4.34,0,6.52a7.06,7.06,0,0,1-1.07,3.93,6.37,6.37,0,0,1-4.41,2.72c-.34-2-.67-3.85-1-5.75a.76.76,0,0,1,.25-.52,2,2,0,0,0,.68-1.22c.28-1.68.52-3.36.92-5A91.45,91.45,0,0,0,8.47,1.34c0-.17.16-.47.22-.46.22,0,.55.09.63.24a4.13,4.13,0,0,1,.51,1.53c0,1.23-.1,2.47-.13,3.7s0,2.29,0,3.47l.65.09c.12-2.24.24-4.43.34-6.61A4.49,4.49,0,0,0,10.55,2,5.17,5.17,0,0,0,10,.67,1.32,1.32,0,0,0,8.5.05C8,.19,7.76.52,7.64,1.3,7.27,3.66,7,6,6.46,8.36c-.76,3.45-1.75,6.85-2.22,10.37a2.23,2.23,0,0,1-.23.5l-.25-.68c-1.09.2-2.15.41-3.22.56-.49.07-.59.25-.52.72.33,2.24.63,4.48,1,6.72.08.59.18,1.17.28,1.8l4.12-.59c0-.29,0-.5-.06-.71l.76-.21A6.77,6.77,0,0,0,11.32,21a6.72,6.72,0,0,0,0-1.9,34.14,34.14,0,0,1,.1-6.78A1.73,1.73,0,0,0,10.76,10.62ZM1.87,27.5c-.36-2.57-.71-5.08-1.08-7.67.75-.13,1.46-.26,2.17-.36a.41.41,0,0,1,.3.26c.42,2.43.83,4.87,1.26,7.39Z"/><path class="cls-1" d="M21.83,20.74c0,.21-.27.43-.41.64h-.26c-.13-.22-.37-.43-.39-.67a.44.44,0,0,1,.56-.5A.78.78,0,0,1,21.83,20.74Z"/><path class="cls-1" d="M2.23,20.74c0,.23-.28.43-.43.65-.48-.12-.72-.33-.64-.67a.8.8,0,0,1,.52-.51A.45.45,0,0,1,2.23,20.74Z"/></g></g></svg>