<svg xmlns="http://www.w3.org/2000/svg" viewBox="0 0 28.35 27.06"><defs><style>.cls-1{fill:#fff;}</style></defs><g id="Layer_2" data-name="Layer 2"><g id="Layer_1-2" data-name="Layer 1"><path class="cls-1" d="M27.22,15.16a.58.58,0,0,1-.62-.38c-.6-1.2-1.24-2.4-1.86-3.59a.56.56,0,0,1,0-.68,2.12,2.12,0,0,0-.85-3.11A.51.51,0,0,1,23.67,7c0-1.12,0-2.25,0-3.48a13.05,13.05,0,0,0,1.67,0,.66.66,0,0,0,.46-.47c0-.17-.23-.4-.39-.54s-.31,0-.47,0c-2.45,0-4.89,0-7.34,0a.46.46,0,0,1-.53-.37A2.86,2.86,0,0,0,14.57,0a2.82,2.82,0,0,0-2.83,1.19,9.24,9.24,0,0,0-.66,1.26H3.74c-1,0-1.2.1-1.22.53s.24.55,1.2.55h.95c0,.21,0,.34,0,.46,0,1,0,2,0,3,0,.11-.14.26-.26.33a2.08,2.08,0,0,0-.83,3.13.59.59,0,0,1,0,.68C3,12.25,2.47,13.27,2,14.34c-.28.6-.6,1-1.31.82-.39-.07-.58.15-.64.54a3.6,3.6,0,0,0,3,4,18.83,18.83,0,0,0,4.31,0,3.55,3.55,0,0,0,3.14-3.89c0-.52-.18-.67-.7-.68a2.29,2.29,0,0,0-.37,0,.58.58,0,0,1-.67-.39c-.58-1.2-1.2-2.38-1.83-3.55a.57.57,0,0,1,0-.71,2,2,0,0,0-.48-2.85,1.14,1.14,0,0,1-.65-1.34c0-.36,0-.74,0-1.1V3.57h5a.5.5,0,0,1,.57.4,3,3,0,0,0,5.76,0c.1-.31.25-.37.54-.37h4.52l.48,0c0,1.19,0,2.35,0,3.5a.4.4,0,0,1-.25.29,2.12,2.12,0,0,0-.83,3.18.48.48,0,0,1,0,.58c-.59,1.08-1.17,2.15-1.7,3.26-.26.56-.55.83-1.2.75s-.67.14-.71.67a3.6,3.6,0,0,0,3,3.88,25.49,25.49,0,0,0,3.61.1,3.69,3.69,0,0,0,3.76-3.43C28.43,15.33,28.27,15.15,27.22,15.16ZM5.87,11.65c.58,1.14,1.18,2.27,1.81,3.48H2.8a3.42,3.42,0,0,1,.14-.36c.54-1,1.09-2.08,1.61-3.13.19-.42.53-.25.8-.3A.44.44,0,0,1,5.87,11.65Zm14.84,3.48a2.39,2.39,0,0,1,.11-.32c.54-1.07,1.1-2.13,1.65-3.2.2-.36,1.06-.4,1.24-.06.6,1.14,1.19,2.28,1.78,3.42a.39.39,0,0,1,0,.16Z"/><path class="cls-1" d="M21.42,23.85c0,.47-.35.54-.74.54H7.43c-.32,0-.54-.18-.54-.53s.22-.54.57-.54c1.28,0,2.55,0,3.82,0h.58V6.24a4.07,4.07,0,0,0,4.61,0V22.64c0,.76-.07.66.7.66,1.17,0,2.35,0,3.53,0C21.09,23.3,21.42,23.37,21.42,23.85Z"/><path class="cls-1" d="M23.64,26.43a.83.83,0,0,1-.29.55c-.11.1-.33.07-.51.07H5.51c-.16,0-.37,0-.46,0a.9.9,0,0,1-.35-.58c0-.14.26-.32.44-.43a1.27,1.27,0,0,1,.48,0H22.75a1,1,0,0,1,.47,0C23.4,26.09,23.64,26.27,23.64,26.43Z"/></g></g></svg>