<svg xmlns="http://www.w3.org/2000/svg" viewBox="0 0 27.65 28.38"><defs><style>.cls-1{fill:#fff;}</style></defs><g id="Layer_2" data-name="Layer 2"><g id="Layer_1-2" data-name="Layer 1"><path class="cls-1" d="M27.37,19.63c-.22.08-.44-.09-.57-.41s-.23-.52-.34-.8-.19-.28-.37-.19a.27.27,0,0,0-.13.41c.15.36.29.71.43,1.09a3.19,3.19,0,0,1,.13.37.53.53,0,0,1-.32.65.52.52,0,0,1-.67-.32c-.23-.46-.39-.95-.6-1.43-.06-.15-.11-.32-.34-.24s-.15.26-.09.41L25,20.36c.05.19.11.37.15.56a.58.58,0,0,1-.38.65.55.55,0,0,1-.63-.33c-.22-.54-.43-1.09-.63-1.61a1.69,1.69,0,0,0-.13-.3,3.13,3.13,0,0,0-.32-.15c0,.12-.13.25-.1.34.17.5.36,1,.56,1.51a.6.6,0,1,1-1.1.47c-.69-1.49-1.36-3-2.05-4.5-.28-.63-.46-.65-.91-.09-.15.19-.32.37-.51.58a2,2,0,0,1-.28-1.63c.38-.93.69-1.88,1.07-2.81a1.79,1.79,0,0,0,0-1.25c-.26-.77-.54-1.53-.82-2.3,0-.05,0-.13-.1-.26.47-.06.92-.11,1.36-.13.88,0,1.78-.06,2.65-.11.19,0,.3,0,.36.24.15.41.33.8.45,1.23a8.63,8.63,0,0,0,1.23,2.2,14,14,0,0,1,1.66,2.6c.3.84.54,1.69.8,2.53.13.4.22.79.34,1.18S27.62,19.56,27.37,19.63Z"/><path class="cls-1" d="M22,6.81a2,2,0,0,0-.26.25c.1.07.15.2.24.2.38,0,.75,0,1.11.06a4.43,4.43,0,0,0,.52,0c.41,0,.67.24.65.59a.65.65,0,0,1-.71.62c-.84,0-1.68,0-2.52,0s-1.66.09-2.48.15c-.39,0-.5.26-.32.61s.27.54.42.84a2.07,2.07,0,0,1-2-.61c-.51-.51-1.08-1-1.55-1.5a2.22,2.22,0,0,0-2.17-.8,1.52,1.52,0,0,1-.33,0c.13-.33.24-.67.35-1,.41-1,.82-2,1.25-2.93a.32.32,0,0,1,.21-.18c.95-.19,1.88-.34,2.83-.51a22.5,22.5,0,0,1,2.26-.35,9.74,9.74,0,0,1,1.7.13c.71.07,1.4.17,2.09.24l.15,0c.22,0,.39.18.37.43s-.2.37-.46.39-.64,0-1,0-.35,0-.35.26.15.28.34.28c.35,0,.69,0,1,0a3.1,3.1,0,0,1,.43,0,.56.56,0,0,1,.54.54.54.54,0,0,1-.54.5,4.15,4.15,0,0,1-.71,0c-.3,0-.58,0-.88,0s-.35,0-.33.24a.42.42,0,0,0,.31.21c.53.06,1.07.07,1.59.09a.87.87,0,0,1,.32.06.61.61,0,0,1,.41.69.54.54,0,0,1-.58.37c-.6,0-1.21,0-1.83,0C22.08,6.81,22,6.78,22,6.81Z"/><path class="cls-1" d="M12.06,7.23c-.19.46,0,.69.48.63.21,0,.41,0,.6,0h.24c-.2.49-.33,1-.86,1.18-.78.31-1.53.71-2.33,1a2.69,2.69,0,0,0-1.75,1.57c-.12.24-.25.48-.39.78-.38-.56-.7-1.06-1-1.59C6.57,10,6.1,9.22,5.66,8.46a.55.55,0,0,1-.1-.38C5.79,7.06,6,6,6.25,5A8.71,8.71,0,0,1,7.49,2.23c.35-.55.67-1.12,1-1.67A2.22,2.22,0,0,1,8.74.21.38.38,0,0,1,9.28.06a.43.43,0,0,1,.15.58c-.12.3-.25.56-.38.86-.05.15-.15.33.06.43s.35,0,.45-.23A10,10,0,0,1,10.08.6a1.13,1.13,0,0,1,.47-.45.56.56,0,0,1,.5.15,1.17,1.17,0,0,1,0,.69c-.17.45-.4.86-.6,1.29-.08.13-.19.3,0,.41s.31-.07.39-.22L11.66,1a.83.83,0,0,1,.21-.26.56.56,0,0,1,.71,0,.53.53,0,0,1,.11.66L11.91,3c0,.05-.08.11-.08.17s0,.29.1.35.24,0,.31-.17L13,2a.61.61,0,0,1,.86-.33A.63.63,0,0,1,14,2.5C13.38,4.07,12.73,5.64,12.06,7.23Z"/><path class="cls-1" d="M21.66,21.42l-1.56,3.1a7.28,7.28,0,0,1-1.44,1.83c-.58.56-1.14,1.12-1.7,1.68a1.64,1.64,0,0,1-.31.28.43.43,0,0,1-.53,0,.38.38,0,0,1,0-.52c.2-.28.41-.54.61-.8s.19-.34,0-.47-.3,0-.43.11c-.26.34-.52.65-.8,1a.84.84,0,0,1-.26.24.46.46,0,0,1-.6,0,.45.45,0,0,1-.17-.56c.23-.35.47-.67.71-1l.38-.45c.11-.11.2-.26,0-.39s-.28,0-.39.11c-.35.39-.69.78-1,1.15-.11.14-.28.3-.43.3a.81.81,0,0,1-.6-.18c-.19-.17-.11-.43,0-.64l1.19-1.45a.13.13,0,0,0,.08-.1,2.17,2.17,0,0,0,0-.37c-.12,0-.28,0-.36.09-.35.38-.69.77-1,1.18a.61.61,0,1,1-.94-.77c.43-.56.88-1.11,1.31-1.67.63-.84,1.23-1.7,1.85-2.54A.33.33,0,0,0,15,20a7.49,7.49,0,0,0-1.12-.13,2,2,0,0,1,1.55-1.1c.8-.12,1.62-.28,2.43-.34a2.32,2.32,0,0,0,1.71-.89l.21-.23.09,0c.36.79.73,1.57,1.08,2.35.23.49.45,1,.66,1.48A.53.53,0,0,1,21.66,21.42Z"/><path class="cls-1" d="M8.83,15.6a2.8,2.8,0,0,0,.22,2.52l.1.23-2,0-2.35,0a.47.47,0,0,1-.3-.09c-.71-.78-1.4-1.59-2.11-2.37A9.36,9.36,0,0,1,.86,13.27L.08,11.42A.4.4,0,0,1,0,11.2c.06-.17.12-.41.25-.49s.37.06.46.17a3.66,3.66,0,0,1,.54.84c.1.17.21.32.41.21s.13-.32,0-.49c-.19-.35-.39-.73-.6-1.1A1.42,1.42,0,0,1,1,10a.48.48,0,0,1,.26-.56.48.48,0,0,1,.6.11,1.54,1.54,0,0,1,.3.45c.2.33.37.7.6,1,0,.09.22.13.33.19,0-.13.1-.28.06-.4-.24-.5-.51-1-.75-1.49a.87.87,0,0,1-.09-.41.52.52,0,0,1,.41-.52.53.53,0,0,1,.6.32c.28.5.54,1,.82,1.51,0,.07.07.18.15.22a1,1,0,0,0,.33.13c0-.13.08-.26,0-.33-.22-.47-.47-.94-.71-1.38s-.15-.75.15-.92a.64.64,0,0,1,.9.28c.55.95,1.11,1.9,1.69,2.86.34.54.67,1.06,1,1.58s.48.36.71,0a9.62,9.62,0,0,0,.46-.91c.28.5.62.93.49,1.53C9.2,14.05,9.07,14.84,8.83,15.6Z"/><path class="cls-1" d="M14.82,20.43c-.52.71-1,1.39-1.49,2s-1,1.29-1.48,1.92a.45.45,0,0,1-.26.19c-1,.18-2,.41-3.06.5a11.14,11.14,0,0,1-2.15-.17c-.67-.07-1.32-.18-2-.28a.32.32,0,0,1-.15,0c-.23-.07-.39-.18-.38-.44a.39.39,0,0,1,.41-.38c.36,0,.7,0,1,0,.11,0,.32-.14.34-.24s-.13-.28-.34-.28l-1.38-.07c-.37,0-.6-.21-.6-.53a.55.55,0,0,1,.58-.54c.52,0,1,0,1.57.06.15,0,.3,0,.32-.19s-.13-.26-.28-.26l-1.78-.15a.76.76,0,0,1-.37-.15.52.52,0,0,1-.17-.61.56.56,0,0,1,.6-.32c.56,0,1.14.06,1.7.08a.72.72,0,0,0,.33,0c.08,0,.13-.13.21-.21-.08-.07-.15-.2-.24-.2C5.27,20.06,4.74,20,4.2,20s-.67-.27-.65-.62a.66.66,0,0,1,.69-.6c1.7,0,3.39,0,5.09,0,.39,0,.52-.24.36-.57s-.3-.6-.47-.92a2.14,2.14,0,0,1,2,.73c.58.58,1.18,1.14,1.72,1.75a2,2,0,0,0,1.33.6Z"/></g></g></svg>