<svg xmlns="http://www.w3.org/2000/svg" viewBox="0 0 28.35 28.35"><defs><style>.cls-1{fill:#fff;}</style></defs><g id="Layer_2" data-name="Layer 2"><g id="Layer_1-2" data-name="Layer 1"><path class="cls-1" d="M23.65,18.55l-.27.59a1.14,1.14,0,0,1-.37-.62c-.41-1.78-.7-3.57-1.23-5.32A72.12,72.12,0,0,1,18.8.87C18.75.35,18.28.11,17.7,0a1.69,1.69,0,0,0-1.83.79,5.39,5.39,0,0,0-.68,2.23c0,1.44.19,2.89.27,4.34,0,.84,0,1.68,0,2.57l.91-.15c0-1.22,0-2.38,0-3.55s-.18-2.36-.17-3.55a3,3,0,0,1,.47-1.41c.13-.22.56-.31.85-.47a2.61,2.61,0,0,1,.38.66c.48,2.3.81,4.63,1.43,6.91a93.32,93.32,0,0,1,2.72,10.32,1.57,1.57,0,0,0,.78,1.17.59.59,0,0,1,.32.73c-.37,1.71-.71,3.42-1.07,5.13a3.12,3.12,0,0,1-.15.43l-.33,0c-4.14-.72-6.6-3.4-6.36-6.84.09-1.28.07-2.58.06-3.87,0-1.09-.13-2.19-.11-3.29a1.1,1.1,0,0,1,.52-.88,1.53,1.53,0,0,1,1.18.13,2.27,2.27,0,0,1,.86,1.12c.45,1.56.81,3.15,1.21,4.73a2.44,2.44,0,0,0,.14.34,14.56,14.56,0,0,0-.43-5.34,2.69,2.69,0,0,0-2.11-1.79,1.78,1.78,0,0,0-2.2.88,2.06,2.06,0,0,0-.14,1,30.06,30.06,0,0,1,.1,6.36c-.61,4,1.92,7.12,6.7,8.17.57.13.94.27.62.9l5.14.58c.53-3.08,1-6.07,1.57-9.12ZM26,27.49l-3.27-.37,1.62-7.71,3,.42C26.86,22.39,26.43,24.9,26,27.49Z"/><path class="cls-1" d="M13.24,10.62a2.23,2.23,0,0,0-2.1,0,2.32,2.32,0,0,0-1.47,1.48,28.72,28.72,0,0,0-.52,3.15,19.28,19.28,0,0,0,0,2.15A.78.78,0,0,0,9.38,17c.28-1.08.54-2.15.81-3.23.13-.53.25-1.08.43-1.6a1.79,1.79,0,0,1,1.71-1c.56.07.81.49.78,1.28,0,.2,0,.39,0,.59,0,2.17,0,4.34,0,6.52a6.15,6.15,0,0,1-1.33,3.93c-1.25,1.6-3.16,2.34-5.43,2.72-.41-2-.82-3.85-1.2-5.75,0-.16.15-.4.31-.52a2,2,0,0,0,.83-1.22c.35-1.68.65-3.36,1.13-5a76.74,76.74,0,0,0,3-12.37c0-.17.19-.47.27-.46.27,0,.68.09.77.24a3.47,3.47,0,0,1,.62,1.53c0,1.23-.12,2.47-.15,3.7s0,2.29,0,3.47l.79.09c.15-2.24.31-4.43.42-6.61A3.68,3.68,0,0,0,13,2,4.65,4.65,0,0,0,12.32.67,1.8,1.8,0,0,0,10.46.05C9.79.19,9.56.52,9.4,1.3,9,3.66,8.58,6,8,8.36A102.11,102.11,0,0,0,5.22,18.73c0,.14-.15.27-.28.5l-.31-.68c-1.35.2-2.65.41-4,.56-.61.07-.73.25-.65.72.42,2.24.78,4.48,1.17,6.72.11.59.22,1.17.35,1.8l5.07-.59c0-.29-.05-.5-.08-.71l.94-.21C11.21,26,13.29,24,13.93,21a5.77,5.77,0,0,0,.07-1.9,28,28,0,0,1,.11-6.78A1.6,1.6,0,0,0,13.24,10.62ZM2.31,27.5c-.45-2.57-.88-5.08-1.33-7.67.92-.13,1.79-.26,2.66-.36a.48.48,0,0,1,.37.26c.52,2.43,1,4.87,1.55,7.39Z"/><path class="cls-1" d="M26.86,20.74c0,.21-.32.43-.5.64h-.31c-.17-.22-.46-.43-.49-.67s.29-.59.7-.5C26.51,20.26,26.85,20.55,26.86,20.74Z"/><path class="cls-1" d="M2.74,20.74c0,.23-.34.43-.52.65-.6-.12-.9-.33-.8-.67a1,1,0,0,1,.64-.51C2.47,20.13,2.8,20.4,2.74,20.74Z"/></g></g></svg>