<svg xmlns="http://www.w3.org/2000/svg" viewBox="0 0 28.35 28.35"><defs><style>.cls-1{fill:#fff;}</style></defs><g id="Layer_2" data-name="Layer 2"><g id="Layer_1-2" data-name="Layer 1"><path class="cls-1" d="M27.81,10.51C26.05,4.76,22.18,1.36,16.29.23c-.51-.1-1-.15-1.56-.23H13.61L11.67.34A14.1,14.1,0,0,0,.23,12.14c-.07.49-.15,1-.23,1.47v1.12c.18,1,.31,2,.54,3A14,14,0,0,0,12.22,28.15a3.42,3.42,0,0,1,.59.2h2.88l2-.49A14,14,0,0,0,28.15,16.2a2.69,2.69,0,0,1,.2-.51V12.81C28.17,12,28,11.26,27.81,10.51ZM14.19,26.3A12.06,12.06,0,0,1,2.12,14.16a12,12,0,0,1,12.09-12A12,12,0,0,1,26.29,14.25,12.16,12.16,0,0,1,14.19,26.3Z"/><path class="cls-1" d="M21.29,14.63a1.45,1.45,0,0,1-1.4,1.63c-1.25.06-2.5,0-3.75,0a1.63,1.63,0,0,1-1-.51.79.79,0,0,1,.45-1.43c1.07-.13,2.17-.1,3.26-.15.29,0,.58-.05.87-.07a2.44,2.44,0,0,0,0-.27c-.31,0-.62-.12-.93-.13-1.14,0-2.29-.08-3.43,0-.94.06-1.27.48-1.36,1.45-.18,2.11-.3,4.24-.53,6.35a20.68,20.68,0,0,1-.68,2.68c-1.83-.67-3.58-1.29-5.29-2a1.1,1.1,0,0,1-.43-.86c0-1.94-.1-3.9,0-5.84A4.15,4.15,0,0,1,8,13.33c1.14-1.43,2.42-2.76,3.66-4.12A12.27,12.27,0,0,0,14.18,5c.18-.52.68-1.26,1.09-1.29.76-.07,1,.76,1.11,1.42a6.25,6.25,0,0,1-.45,3.52c-.37.92-.77,1.82-1.14,2.73-.13.34-.23.69-.4,1.2,1.67,0,3.19,0,4.71,0A2.14,2.14,0,0,1,21.29,14.63Z"/><path class="cls-1" d="M20.33,18c0,.61-.31,1-.92,1-1.26,0-2.53,0-3.8,0a1.08,1.08,0,0,1-.78-.32,1.59,1.59,0,0,1-.29-1.06,1,1,0,0,1,.74-.57,17.81,17.81,0,0,1,2.07,0v0c.69,0,1.38,0,2.07,0A.85.85,0,0,1,20.33,18Z"/><path class="cls-1" d="M19.69,20.55c0,.56-.23,1-.8,1-1.22,0-2.44.06-3.65,0-.59,0-1.19-.28-1.1-1.09s.69-.75,1.26-.73l.56,0v.11h2.88C19.32,19.86,19.68,20,19.69,20.55Z"/><path class="cls-1" d="M18.82,23.14c-.27.37-.47.93-.83,1.06a4.37,4.37,0,0,1-3.33-.13A1.32,1.32,0,0,1,14,23c0-.25.54-.56.89-.69a3.42,3.42,0,0,1,1.11,0v-.06a11.94,11.94,0,0,1,1.81.23A3.75,3.75,0,0,1,18.82,23.14Z"/></g></g></svg>