<svg xmlns="http://www.w3.org/2000/svg" viewBox="0 0 27.82 28.37"><defs><style>.cls-1{fill:#fff;}</style></defs><g id="Layer_2" data-name="Layer 2"><g id="Layer_1-2" data-name="Layer 1"><path class="cls-1" d="M20.78,28.37H14.86a1,1,0,0,1-1-.72c-.39-1.13-.78-2.24-1.18-3.35a4,4,0,0,0-1.79-2.08c-1-.56-1.93-1.15-2.89-1.71A2.14,2.14,0,0,1,6.81,18.6c0-1.18-.08-2.34-.09-3.52a1.38,1.38,0,0,1,1.17-1.41l3.62-.8a1.19,1.19,0,1,1,.57,2.31c-.46.12-.91.21-1.37.32a1.31,1.31,0,0,0,.18,2.59c.59.08,1.19.15,1.77.19a1.17,1.17,0,0,1,1,.67c.31.58.63,1.15,1,1.73.18.31.39.56.76.34s.26-.5.1-.79c-.34-.63-.71-1.27-1.05-1.9a2.18,2.18,0,0,0-1.48-1l1.28-.61a2.54,2.54,0,0,0,3-.29A2.58,2.58,0,0,0,20.44,16c.37,1.28.77,2.56.22,3.8a4.9,4.9,0,0,0-.12,3.18c.29,1.55.6,3.09.9,4.63C21.54,28.11,21.34,28.37,20.78,28.37Z"/><path class="cls-1" d="M20.06,14.15a1.39,1.39,0,0,1-.92,1.53,1.48,1.48,0,0,1-1.72-.46,4.36,4.36,0,0,1-.3-.45c-.25.84-.73,1.39-1.64,1.32A1.37,1.37,0,0,1,14.15,15a7.13,7.13,0,0,1-.72,1,1.33,1.33,0,0,1-1.34.21l.36-.15a2.15,2.15,0,0,0,1.48-2.61,2.12,2.12,0,0,0-2.51-1.56c-1.13.23-2.25.48-3.38.72a3.73,3.73,0,0,1-.46.09,1.56,1.56,0,0,1,.34-2.05c.65-.52,1.39-.4,2.23.38.12-1.14.43-1.58,1.23-1.74s1.26.15,1.81,1.15a1.55,1.55,0,0,1,1.56-1.32c.91,0,1.34.65,1.52,1.63.24-.91.66-1.44,1.51-1.45a1.37,1.37,0,0,1,1.45,1C19.54,11.61,19.82,12.87,20.06,14.15Z"/><path class="cls-1" d="M16.7,2.55c-.26.29-.59.54-.85.86a.94.94,0,0,0-.17.62,11.56,11.56,0,0,0,.17,1.18c0,.4-.22.6-.53.37a2.08,2.08,0,0,0-2.8,0c-.29.21-.55,0-.55-.37A9.73,9.73,0,0,0,12.19,4a1.05,1.05,0,0,0-.2-.63c-.26-.32-.57-.57-.85-.86S11,2,11.36,1.91a7.24,7.24,0,0,1,1-.15.74.74,0,0,0,.71-.53c.14-.33.31-.64.47-.95s.47-.37.67,0,.34.74.56,1.07a1.05,1.05,0,0,0,.54.38,10.8,10.8,0,0,0,1.14.17C16.89,2,17,2.24,16.7,2.55Z"/><path class="cls-1" d="M5.88,13.1a.7.7,0,0,1-.21.48,3.92,3.92,0,0,1-.68.67.77.77,0,0,0-.27.82c.08.37.13.76.18,1.09s-.18.54-.53.38-.66-.39-1-.52a1.17,1.17,0,0,0-.74,0c-.34.13-.65.35-1,.5s-.67,0-.54-.36A2.19,2.19,0,0,0,.2,13.47c-.33-.24-.23-.5.18-.6a8.19,8.19,0,0,1,1.09-.16.76.76,0,0,0,.7-.5c.15-.31.29-.64.46-.94.08-.13.23-.27.35-.27s.26.15.34.27a8.31,8.31,0,0,1,.48.94.72.72,0,0,0,.73.5,6.22,6.22,0,0,1,1,.14C5.63,12.88,5.87,13,5.88,13.1Z"/><path class="cls-1" d="M8.87,5.61c-.17.24-.27.56-.48.7-.84.53-.78,1.27-.57,2.08A2.46,2.46,0,0,1,7.74,9c-.2,0-.47,0-.62-.12a1.77,1.77,0,0,0-2.41,0A1,1,0,0,1,4.14,9C4.08,9,4,8.79,4,8.74c.06-.34.08-.61.15-.85a1.15,1.15,0,0,0-.49-1.41A3.43,3.43,0,0,1,3.11,6c-.22-.26-.15-.5.19-.56s.8-.1,1.18-.21a1.24,1.24,0,0,0,.61-.45,9.83,9.83,0,0,0,.5-1c.22-.4.48-.4.7,0a2.31,2.31,0,0,1,.26.55c.2.77.77.93,1.46,1A3.89,3.89,0,0,1,8.87,5.61Z"/><path class="cls-1" d="M27.67,13.45a7.83,7.83,0,0,1-.82.81.76.76,0,0,0-.27.81,8.44,8.44,0,0,1,.19,1.1c0,.41-.16.54-.53.37s-.67-.39-1-.52a1.23,1.23,0,0,0-.76,0c-.29.1-.56.32-.85.43s-.45.15-.55.06-.12-.36-.1-.55c0-.38.11-.76.19-1.23a1.35,1.35,0,0,0-.26-.4c-.26-.3-.58-.56-.84-.86s-.21-.48.17-.59a11.2,11.2,0,0,1,1.14-.17.74.74,0,0,0,.66-.47,6,6,0,0,1,.47-1c.06-.12.22-.29.32-.28a.65.65,0,0,1,.4.28,8.42,8.42,0,0,1,.4.86.87.87,0,0,0,.81.57,5.07,5.07,0,0,1,1.09.18C27.85,13,27.91,13.2,27.67,13.45Z"/><path class="cls-1" d="M24.63,5.62a3.11,3.11,0,0,1-.5.71,1.45,1.45,0,0,0-.58,1.85,2.3,2.3,0,0,1,0,.86,2.23,2.23,0,0,1-.82-.24,1.48,1.48,0,0,0-2,0,3.45,3.45,0,0,1-.47.24c-.32.13-.48,0-.51-.33s.17-.84.2-1.25a1,1,0,0,0-.19-.62c-.22-.29-.52-.52-.77-.8a.64.64,0,0,1-.19-.44c0-.12.24-.2.39-.26a2.53,2.53,0,0,1,.66-.11,1.26,1.26,0,0,0,1.25-1,4.21,4.21,0,0,1,.58-.82,2.54,2.54,0,0,1,.62.82c.23.78.8.94,1.48,1A3.15,3.15,0,0,1,24.63,5.62Z"/><path class="cls-1" d="M11.66,17.16c-.81.1-1.09-.07-.94-.61C11.05,16.76,11.36,17,11.66,17.16Z"/></g></g></svg>