<svg width="1210" height="706" viewBox="0 0 1210 706" fill="none" xmlns="http://www.w3.org/2000/svg">
<mask id="mask0_122_97" style="mask-type:alpha" maskUnits="userSpaceOnUse" x="0" y="0" width="1210" height="706">
<path d="M0 0H1210V706H1165L0 0Z" fill="white"/>
</mask>
<g mask="url(#mask0_122_97)">
<g opacity="0.2">
<path d="M-138.867 178.867L1682.07 1282.13" stroke="#175CFF"/>
<path d="M188.594 -416.336L2009.53 686.927" stroke="#175CFF"/>
<path d="M-411.751 674.869L1409.19 1778.13" stroke="#175CFF"/>
<path d="M-84.2903 79.6664L1736.65 1182.93" stroke="#175CFF"/>
<path d="M243.17 -515.535L2064.11 587.728" stroke="#175CFF"/>
<path d="M-357.175 575.669L1463.76 1678.93" stroke="#175CFF"/>
<path d="M-29.7135 -19.5339L1791.22 1083.73" stroke="#175CFF"/>
<path d="M297.747 -614.736L2118.68 488.527" stroke="#175CFF"/>
<path d="M-302.597 476.468L1518.34 1579.73" stroke="#175CFF"/>
<path d="M24.8633 -118.734L1845.8 984.529" stroke="#175CFF"/>
<path d="M352.324 -713.937L2173.26 389.326" stroke="#175CFF"/>
<path d="M-248.021 377.268L1572.91 1480.53" stroke="#175CFF"/>
<path d="M79.4403 -217.935L1900.38 885.328" stroke="#175CFF"/>
<path d="M406.901 -813.137L2227.84 290.126" stroke="#175CFF"/>
<path d="M-193.444 278.068L1627.49 1381.33" stroke="#175CFF"/>
<path d="M134.017 -317.135L1954.95 786.128" stroke="#175CFF"/>
<path d="M461.478 -912.338L2282.41 190.925" stroke="#175CFF"/>
<path d="M1408.43 -1000.92L-538.294 178.556" stroke="#175CFF"/>
<path d="M1735.89 -405.716L-210.834 773.758" stroke="#175CFF"/>
<path d="M2063.35 189.487L116.627 1368.96" stroke="#175CFF"/>
<path d="M1463.01 -901.718L-483.717 277.756" stroke="#175CFF"/>
<path d="M1790.47 -306.516L-156.257 872.959" stroke="#175CFF"/>
<path d="M2117.93 288.688L171.204 1468.16" stroke="#175CFF"/>
<path d="M1517.58 -802.518L-429.141 376.957" stroke="#175CFF"/>
<path d="M1845.04 -207.315L-101.68 972.159" stroke="#175CFF"/>
<path d="M2172.5 387.887L225.78 1567.36" stroke="#175CFF"/>
<path d="M1572.16 -703.317L-374.564 476.157" stroke="#175CFF"/>
<path d="M1899.62 -108.115L-47.1036 1071.36" stroke="#175CFF"/>
<path d="M2227.08 487.088L280.358 1666.56" stroke="#175CFF"/>
<path d="M1626.74 -604.116L-319.988 575.358" stroke="#175CFF"/>
<path d="M1954.2 -8.91406L7.47383 1170.56" stroke="#175CFF"/>
<path d="M2281.66 586.288L334.935 1765.76" stroke="#175CFF"/>
<path d="M1681.31 -504.917L-265.41 674.558" stroke="#175CFF"/>
<path d="M2008.77 90.2856L62.05 1269.76" stroke="#175CFF"/>
<path d="M2336.23 685.489L389.511 1864.96" stroke="#175CFF"/>
</g>
</g>
</svg>
