<svg width="49" height="32" viewBox="0 0 49 32" fill="none" xmlns="http://www.w3.org/2000/svg">
<g id="easy-to-use 1">
<path id="Vector" d="M24.9685 12.0189C20.0679 12.0189 16.0952 15.8713 16.0952 20.6234C16.0952 25.3755 20.0679 29.2278 24.9685 29.2278C29.8691 29.2278 33.8418 25.3755 33.8418 20.6234C33.8418 15.8713 29.8691 12.0189 24.9685 12.0189Z" fill="white"/>
<path id="Vector_2" d="M12.4336 14.7505L22.4361 18.4356V31.3333L12.4336 27.6482V14.7505Z" fill="black"/>
<path id="Vector_3" d="M36.0946 12.6227L24.6859 16.9357L13.2773 12.6227L24.6859 8.74097L36.0946 12.6227Z" fill="black"/>
<path id="Vector_4" d="M37.0845 14.6832L27.082 18.3683V31.266L37.0845 27.581V14.6832Z" fill="black"/>
<path id="Vector_5" d="M17.4471 23.131L9.92188 27.7735" stroke="white" stroke-width="5" stroke-linecap="round" stroke-linejoin="round"/>
<path id="Vector_6" d="M31.5898 23.2184L39.115 27.8609" stroke="white" stroke-width="5" stroke-linecap="round" stroke-linejoin="round"/>
<path id="Vector_7" d="M24.6453 12.7942L24.6367 4.14539" stroke="white" stroke-width="5" stroke-linecap="round" stroke-linejoin="round"/>
<path id="Vector_8" d="M9.70348 25.1072C8.09968 25.1072 6.79954 26.368 6.79954 27.9232C6.79954 29.4784 8.09968 30.7391 9.70348 30.7391C11.3073 30.7391 12.6074 29.4784 12.6074 27.9232C12.6074 26.368 11.3073 25.1072 9.70348 25.1072Z" fill="#BF3DC2"/>
<path id="Vector_9" d="M39.3317 25.1948C40.9355 25.1948 42.2356 26.4555 42.2356 28.0107C42.2356 29.5659 40.9355 30.8267 39.3317 30.8267C37.7279 30.8267 36.4277 29.5659 36.4277 28.0107C36.4277 26.4555 37.7279 25.1948 39.3317 25.1948Z" fill="#218EFF"/>
<path id="Vector_10" d="M27.0749 5.39587C27.9345 4.08291 27.5337 2.34283 26.1797 1.50928C24.8257 0.675729 23.0313 1.06437 22.1717 2.37732C21.3121 3.69028 21.7129 5.43036 23.0668 6.26391C24.4208 7.09746 26.2153 6.70882 27.0749 5.39587Z" fill="#AF0000"/>
</g>
</svg>
