<svg xmlns:xlink="http://www.w3.org/1999/xlink" xmlns="http://www.w3.org/2000/svg" width="72" height="72" viewBox="0 0 72 72" fill="none"><g clip-path="url(#clip0_407_1307)" fill="none"><path d="M36.0009 72.0018C55.8836 72.0018 72.0018 55.8836 72.0018 36.0009C72.0018 16.1182 55.8836 0 36.0009 0C16.1182 0 0 16.1182 0 36.0009C0 55.8836 16.1182 72.0018 36.0009 72.0018Z" fill="#CCEFDC"></path><path d="M36.0009 61.7141C52.0962 61.7141 65.144 60.9467 65.144 60.0001C65.144 59.0535 52.0962 58.2861 36.0009 58.2861C19.9056 58.2861 6.85773 59.0535 6.85773 60.0001C6.85773 60.9467 19.9056 61.7141 36.0009 61.7141Z" fill="#99E0B9"></path><path fill-rule="evenodd" clip-rule="evenodd" d="M19.2431 55.1036V19.6957C19.3242 17.3203 17.5472 15.2819 15.1934 15.0674H52.582C54.5393 15.0674 56.6426 17.7276 56.6588 19.6957V59.6652L21.2941 59.7067C20.2001 59.4616 19.2431 57.5746 19.2431 55.1036V55.1036Z" fill="#FDF4D9"></path><path fill-rule="evenodd" clip-rule="evenodd" d="M21.4564 59.7063C23.3992 59.7063 24.9799 57.6282 24.9799 55.0762V52.9315L62.0315 52.8359C62.0315 56.5703 59.885 59.6252 57.5095 59.6252L21.4564 59.7063V59.7063Z" fill="#F39D56"></path><path fill-rule="evenodd" clip-rule="evenodd" d="M19.2485 19.492C19.2503 19.4362 19.2521 19.3803 19.2521 19.3244C19.2521 16.9994 17.3976 15.1088 15.096 15.0674C15.0924 15.0674 15.0888 15.0674 15.0852 15.0674C15.0816 15.0674 15.0762 15.0674 15.0726 15.0674C15.0546 15.0674 15.0384 15.0674 15.0203 15.0674C12.6882 15.0674 10.7976 16.9652 10.7885 19.3082C10.7831 19.456 10.7831 19.6038 10.7921 19.7516V28.6603H16.6785V55.0514C16.6839 57.434 19.1025 59.4346 21.4563 59.6977C20.2957 59.6977 19.2431 57.6449 19.2431 55.0514V19.7516C19.2485 19.665 19.2503 19.5767 19.2503 19.492H19.2485Z" fill="#C7712D"></path><path d="M31.0193 30.7634C31.342 30.767 31.6628 30.713 31.9638 30.6012C32.2287 30.5021 32.472 30.3597 32.6847 30.1813V26.3064C32.4756 26.1369 32.2377 26 31.98 25.9026C31.6898 25.7981 31.3798 25.7476 31.0698 25.7567C30.5201 25.7567 30.0029 26.0018 29.6784 26.4181C29.2747 26.9984 29.0639 27.6779 29.0765 28.3718C29.0188 29.0116 29.2008 29.6514 29.5919 30.1795C29.9272 30.558 30.4264 30.7707 30.9491 30.7616H31.0175L31.0193 30.7634ZM27.5842 34.0508H34.6942V35.6369H27.5842V34.0508ZM32.8559 31.5222C32.5513 31.9241 32.1584 32.2594 31.706 32.5063C31.1725 32.7532 30.5814 32.8703 29.9884 32.8451C29.4531 32.8487 28.9233 32.755 28.4258 32.5711C27.9518 32.3819 27.5337 32.0881 27.2057 31.7151C26.8416 31.3095 26.5731 30.8355 26.4163 30.3273C26.218 29.6983 26.1261 29.0459 26.1423 28.3898C26.1333 27.7122 26.2324 27.0381 26.4343 26.3875C26.5929 25.8576 26.8741 25.3656 27.258 24.951C27.5896 24.5707 28.0131 24.2734 28.4943 24.0787C28.9954 23.8823 29.5324 23.7831 30.0749 23.7886C30.5634 23.7813 31.0482 23.8697 31.5006 24.0463C31.9007 24.2175 32.2575 24.4644 32.5477 24.7726V23.1037H29.9884V21.2906H32.6162V20.0326L35.4836 19.564V21.2906H36.5452V23.1037H35.4836V32.636H33.1479L32.8559 31.5222V31.5222Z" fill="#C7712D"></path><path fill-rule="evenodd" clip-rule="evenodd" d="M25.2142 45.2359H51.5421V47.7339H25.2142V45.2359ZM25.2142 37.7095H51.5421V40.2075H25.2142V37.7095ZM39.8254 30.1831H51.5421V32.6811H39.8254V30.1831V30.1831ZM39.8254 22.6567H51.5421V25.1547H39.8254V22.6567V22.6567Z" fill="#F39D56"></path></g><defs><clipPath id="clip0_407_1307"><rect width="72" height="72" fill="white"></rect></clipPath></defs></svg>