<?xml version="1.0" encoding="utf-8"?>
<!-- Generator: Adobe Illustrator 25.2.1, SVG Export Plug-In . SVG Version: 6.00 Build 0)  -->
<svg version="1.1" id="Layer_1" xmlns="http://www.w3.org/2000/svg" xmlns:xlink="http://www.w3.org/1999/xlink" x="0px" y="0px"
	 viewBox="0 0 96 24" style="enable-background:new 0 0 96 24;" xml:space="preserve">
<style type="text/css">
	.st0{fill-rule:evenodd;clip-rule:evenodd;fill:#0E9251;}
</style>
<path class="st0" d="M3.9,3.5C2.6,2.2,3.5,0,5.3,0h10c0.5,0,1,0.2,1.4,0.6l10.4,10c0.8,0.8,0.8,2.1,0,2.9l-10.7,10
	c-0.4,0.3-0.9,0.5-1.4,0.5H5.1c-1.8,0-2.7-2.2-1.4-3.5l7.7-7c0.9-0.8,0.9-2.1,0-2.9L3.9,3.5z"/>
<path class="st0" d="M26.4,3.5C25.1,2.2,26,0,27.8,0h10c0.5,0,1,0.2,1.4,0.6l10.4,10c0.8,0.8,0.8,2.1,0,2.9l-10.7,10
	c-0.4,0.3-0.9,0.5-1.4,0.5h-9.7c-1.8,0-2.7-2.2-1.4-3.5l7.7-7c0.9-0.8,0.9-2.1,0-2.9L26.4,3.5z"/>
<path class="st0" d="M48.9,3.5C47.6,2.2,48.5,0,50.3,0h10c0.5,0,1,0.2,1.4,0.6l10.4,10c0.8,0.8,0.8,2.1,0,2.9l-10.7,10
	c-0.4,0.3-0.9,0.5-1.4,0.5h-9.7c-1.8,0-2.7-2.2-1.4-3.5l7.7-7c0.9-0.8,0.9-2.1,0-2.9L48.9,3.5z"/>
<path class="st0" d="M71.4,3.5C70.1,2.2,71,0,72.8,0h10c0.5,0,1,0.2,1.4,0.6l10.4,10c0.8,0.8,0.8,2.1,0,2.9l-10.7,10
	c-0.4,0.3-0.9,0.5-1.4,0.5h-9.7c-1.8,0-2.7-2.2-1.4-3.5l7.7-7c0.9-0.8,0.9-2.1,0-2.9L71.4,3.5z"/>
</svg>
