<svg xmlns:xlink="http://www.w3.org/1999/xlink" xmlns="http://www.w3.org/2000/svg" width="72" height="72" viewBox="0 0 72 72" fill="none"><path d="M35.9991 71.9982C55.8809 71.9982 71.9982 55.8809 71.9982 35.9991C71.9982 16.1173 55.8809 0 35.9991 0C16.1173 0 0 16.1173 0 35.9991C0 55.8809 16.1173 71.9982 35.9991 71.9982Z" fill="#CCEFDC"></path><path d="M36.0206 61.6703C50.2222 61.6703 61.735 60.903 61.735 59.9565C61.735 59.01 50.2222 58.2427 36.0206 58.2427C21.8189 58.2427 10.3062 59.01 10.3062 59.9565C10.3062 60.903 21.8189 61.6703 36.0206 61.6703Z" fill="#99E0B9"></path><path d="M22.6257 59.5762C20.8038 59.5762 19.3711 58.185 19.3711 56.4135V15.5541C19.3711 13.7826 20.8038 12.3914 22.6257 12.3914H46.1848C48.0067 12.3914 49.4394 13.7826 49.4394 15.5541V56.4153C49.4394 58.1868 48.0067 59.578 46.1848 59.578H22.6257V59.5762Z" fill="#00B14F"></path><path d="M25.9431 59.5708C24.1212 59.5708 22.6885 58.1796 22.6885 56.4081V15.5541C22.6885 13.7826 24.1212 12.3914 25.9431 12.3914H49.5022C51.3241 12.3914 52.7568 13.7826 52.7568 15.5541V56.4099C52.7568 58.1814 51.3241 59.5726 49.5022 59.5726H25.9431V59.5708Z" fill="#FFFFFF"></path><path fill-rule="evenodd" clip-rule="evenodd" d="M37.7887 57.5055C36.5668 57.5055 35.5757 56.4981 35.5757 55.2565C35.5757 54.0148 36.5668 53.0074 37.7887 53.0074C39.0105 53.0074 40.0017 54.0148 40.0017 55.2565C40.0017 56.4981 39.0105 57.5055 37.7887 57.5055Z" fill="#B2E8CA"></path><path d="M50.0232 50.9099H25.4225C25.0315 50.9099 24.772 50.6576 24.772 50.2791V19.0989C24.772 18.7204 25.0315 18.4681 25.4225 18.4681H50.0232C50.4143 18.4681 50.6738 18.7204 50.6738 19.0989V50.4035C50.6738 50.6558 50.4143 50.9081 50.0232 50.9081V50.9099Z" fill="#00B14F"></path><path fill-rule="evenodd" clip-rule="evenodd" d="M41.0903 35.4747V40.5891C41.0903 40.8702 40.8632 41.0991 40.5803 41.0991H34.8099C34.5288 41.0991 34.2999 40.872 34.2999 40.5891V35.4747H31.5427C31.1678 35.4747 30.8633 35.1701 30.8633 34.7953C30.8633 34.6313 30.9228 34.4727 31.0291 34.3502L37.1833 27.266C37.4284 26.9831 37.8573 26.9525 38.1402 27.1994C38.1637 27.2192 38.1853 27.2408 38.2051 27.2642L44.4116 34.3484C44.6585 34.6295 44.6297 35.0584 44.3485 35.3071C44.2242 35.4152 44.0656 35.4747 43.9016 35.4747H41.0867H41.0903Z" fill="#FFFFFF"></path><path fill-rule="evenodd" clip-rule="evenodd" d="M55.3338 31.2685C54.9067 30.7081 55.0221 29.9152 55.5916 29.4953C56.161 29.0754 56.9702 29.1889 57.3991 29.7494C60.3257 33.5789 60.3257 37.5796 57.3991 41.4091C56.972 41.9695 56.1628 42.083 55.5916 41.6632C55.0221 41.2433 54.9049 40.4485 55.3338 39.8881C57.5721 36.9596 57.5721 34.1988 55.3338 31.2703V31.2685Z" fill="#66D095"></path><path fill-rule="evenodd" clip-rule="evenodd" d="M59.3277 27.603C58.8231 27.1074 58.8231 26.3055 59.3277 25.8099C59.8323 25.3143 60.6486 25.3143 61.1532 25.8099C63.9735 28.578 65.4044 31.856 65.4044 35.5774C65.4044 39.2988 63.9735 42.5768 61.1532 45.3449C60.6486 45.8405 59.8323 45.8405 59.3277 45.3449C58.8231 44.8493 58.8231 44.0473 59.3277 43.5518C61.6704 41.2505 62.822 38.614 62.822 35.5774C62.822 32.5408 61.6704 29.9025 59.3277 27.603Z" fill="#66D095"></path><path fill-rule="evenodd" clip-rule="evenodd" d="M15.7866 31.2685C16.2137 30.7081 16.0983 29.9152 15.5289 29.4953C14.9594 29.0754 14.1503 29.1889 13.7213 29.7494C10.7947 33.5789 10.7947 37.5796 13.7213 41.4091C14.1484 41.9695 14.9576 42.083 15.5289 41.6632C16.0983 41.2433 16.2155 40.4485 15.7866 39.8881C13.5483 36.9596 13.5483 34.1988 15.7866 31.2703V31.2685Z" fill="#66D095"></path><path fill-rule="evenodd" clip-rule="evenodd" d="M11.795 27.603C12.2996 27.1074 12.2996 26.3055 11.795 25.8099C11.2904 25.3143 10.4741 25.3143 9.96946 25.8099C7.14914 28.578 5.71826 31.856 5.71826 35.5774C5.71826 39.2988 7.14914 42.5768 9.96946 45.3449C10.4741 45.8405 11.2904 45.8405 11.795 45.3449C12.2996 44.8493 12.2996 44.0473 11.795 43.5518C9.45225 41.2505 8.3007 38.614 8.3007 35.5774C8.3007 32.5408 9.45225 29.9025 11.795 27.603Z" fill="#66D095"></path></svg>