<svg width="49" height="32" viewBox="0 0 49 32" fill="none" xmlns="http://www.w3.org/2000/svg">
<g id="katalon-testops-actionable-insights 1">
<path id="Vector" d="M13.5059 15.985H35.6118V19.212H13.5059V15.985Z" fill="#41C4FF"/>
<path id="Vector_2" d="M26.5996 22.1423C29.5184 21.1345 31.0421 18.023 30.0028 15.1925C28.9635 12.3621 25.7547 10.8846 22.8359 11.8925C19.917 12.9003 18.3933 16.0118 19.4326 18.8422C20.472 21.6726 23.6807 23.1501 26.5996 22.1423Z" fill="#00194F"/>
<path id="Vector_3" d="M31.4517 12.297C33.0927 12.297 34.423 11.007 34.423 9.41575C34.423 7.82451 33.0927 6.53455 31.4517 6.53455C29.8107 6.53455 28.4805 7.82451 28.4805 9.41575C28.4805 11.007 29.8107 12.297 31.4517 12.297Z" fill="#00194F"/>
<path id="Vector_4" d="M22.5947 7.57921C23.7105 7.57921 24.6151 6.70204 24.6151 5.61999C24.6151 4.53794 23.7105 3.66077 22.5947 3.66077C21.4788 3.66077 20.5742 4.53794 20.5742 5.61999C20.5742 6.70204 21.4788 7.57921 22.5947 7.57921Z" fill="#00194F"/>
<path id="Vector_5" d="M34.6188 31.1976H14.499C13.9505 31.1976 13.5059 30.939 13.5059 30.6201V19.2118H35.6118V30.6201C35.6118 30.939 35.1672 31.1976 34.6188 31.1976Z" fill="#AF0000"/>
<path id="Vector_6" d="M27.5765 19.2118V22.4352C27.5765 22.6916 27.2882 22.8997 26.9317 22.8997H22.7541C22.3976 22.8997 22.1094 22.6916 22.1094 22.4352V19.2118H27.5765Z" fill="white"/>
<path id="Vector_7" d="M8.59007 11.7792L13.5068 15.9849V19.2119L6.0971 13.5533C5.79512 13.2701 5.8448 12.9015 6.21884 12.6508L7.59059 11.7312C7.86794 11.5452 8.36603 11.5692 8.59007 11.7792Z" fill="#AF0000"/>
<path id="Vector_8" d="M40.4109 11.7792L35.6133 16.0644V19.3271L42.9039 13.5533C43.206 13.2701 43.1562 12.9015 42.7821 12.6508L41.4105 11.7312C41.1333 11.5452 40.635 11.5692 40.4109 11.7792Z" fill="#AF0000"/>
<path id="Vector_9" d="M28.3523 1.53504C28.4111 1.49747 28.4111 1.41402 28.3523 1.37644C28.2005 1.27945 28.0564 1.16661 27.9225 1.03782C27.7887 0.909037 27.6714 0.770346 27.5706 0.624243C27.5316 0.567635 27.4449 0.567635 27.4059 0.624243C27.3051 0.770346 27.1878 0.909037 27.054 1.03782C26.9201 1.16661 26.776 1.27945 26.6242 1.37644C26.5654 1.41402 26.5654 1.49747 26.6242 1.53504C26.776 1.63203 26.9201 1.74488 27.054 1.87367C27.1878 2.00245 27.3051 2.14114 27.4059 2.28724C27.4449 2.34385 27.5316 2.34385 27.5706 2.28724C27.6714 2.14114 27.7887 2.00245 27.9225 1.87367C28.0563 1.74486 28.2005 1.63201 28.3523 1.53504Z" fill="#19D89F"/>
<path id="Vector_10" d="M20.7974 11.8185C20.9012 11.7523 20.9012 11.605 20.7974 11.5387C20.5295 11.3675 20.2751 11.1684 20.039 10.9411C19.8028 10.7139 19.5959 10.4691 19.418 10.2113C19.3491 10.1114 19.196 10.1114 19.1272 10.2113C18.9493 10.4691 18.7424 10.7139 18.5062 10.9411C18.27 11.1684 18.0157 11.3675 17.7478 11.5387C17.644 11.605 17.644 11.7523 17.7478 11.8185C18.0157 11.9897 18.2701 12.1888 18.5062 12.4161C18.7424 12.6434 18.9493 12.8881 19.1272 13.146C19.196 13.2459 19.3491 13.2459 19.418 13.146C19.5959 12.8881 19.8028 12.6434 20.039 12.4161C20.2751 12.1888 20.5295 11.9897 20.7974 11.8185Z" fill="#19D89F"/>
<path id="Vector_11" d="M16.1912 3.589C16.2487 3.55226 16.2487 3.4706 16.1912 3.43383C16.0426 3.33894 15.9016 3.22851 15.7706 3.10249C15.6397 2.97649 15.5249 2.84076 15.4263 2.69779C15.3881 2.6424 15.3033 2.6424 15.2651 2.69779C15.1664 2.84076 15.0517 2.97649 14.9207 3.10249C14.7897 3.22851 14.6488 3.33894 14.5002 3.43383C14.4426 3.4706 14.4426 3.55226 14.5002 3.589C14.6488 3.68393 14.7898 3.79433 14.9207 3.92035C15.0517 4.04637 15.1664 4.18208 15.2651 4.32506C15.3033 4.38045 15.3881 4.38045 15.4263 4.32506C15.5249 4.18208 15.6396 4.04637 15.7706 3.92035C15.9016 3.79433 16.0426 3.68393 16.1912 3.589Z" fill="#19D89F"/>
<path id="Vector_12" d="M24.1131 18.4449C23.9848 18.4449 23.8601 18.4039 23.7615 18.3284L22.8091 17.5995C22.5802 17.4242 22.5521 17.1148 22.7462 16.9083C22.9404 16.7019 23.2833 16.6765 23.5122 16.8516L24.0421 17.2573L25.9311 15.1679C26.1208 14.9581 26.4631 14.9266 26.6958 15.0978C26.9284 15.269 26.9631 15.5779 26.7734 15.7877L24.5342 18.2644C24.442 18.3665 24.308 18.4308 24.1627 18.4428C24.1462 18.4442 24.1296 18.4449 24.1131 18.4449Z" fill="white"/>
</g>
</svg>
